# xmcd
#
# Track frame offsets:
#	150
#	12619
#	25172
#	38200
#	51612
#	63374
#	77965
#	91714
#	104866
#	117826
#	133055
#	145959
#	159232
#
# Disc length: 2292 seconds
#
# Revision: 2
# Processed by: cddbd v1.5.2PL0 Copyright (c) Steve Scherf et al.
# Submitted via: EasyCDDAExtractor 10.0.5.1
#
DISCID=b608f20d
DTITLE=Nothing But The Blues (Mississippi John Hurt - Bukka White) - Shake' Em
DTITLE=on Down (Disco 1)
DYEAR=2004
DGENRE=Blues
TTITLE0=Candy Man Blues
TTITLE1=Blessed Be The Name
TTITLE2=Nobody's Dirty Business
TTITLE3=Louis Collins
TTITLE4=Praying On The Old Camp Ground
TTITLE5=Spike Driver Blues
TTITLE6=Avalon Blues
TTITLE7=Ain't No Tellin'
TTITLE8=Blue Harvest Blues
TTITLE9=Frankie
TTITLE10=Big Leg Blues
TTITLE11=Stack O'Lee
TTITLE12=Got The Blues
EXTD=
EXTT0=
EXTT1=
EXTT2=
EXTT3=
EXTT4=
EXTT5=
EXTT6=
EXTT7=
EXTT8=
EXTT9=
EXTT10=
EXTT11=
EXTT12=
PLAYORDER=
